<svg xmlns="http://www.w3.org/2000/svg" viewBox="0 0 137 137"><path d="M68.5 12C99.7 12 125 37.3 125 68.5S99.7 125 68.5 125 12 99.7 12 68.5c0-15.5 6.2-30 17.4-40.8 4.9-4.7 10.5-8.4 16.7-11.1 7.1-3 14.6-4.6 22.4-4.6m0-8c-9.1 0-17.8 1.9-25.6 5.3-7.1 3.1-13.5 7.4-19 12.7C11.6 33.7 4 50.2 4 68.5 4 104.1 32.9 133 68.5 133S133 104.1 133 68.5 104.1 4 68.5 4z" fill="#ccc"/><path d="M29.2 86.9v-2.6l3.4-3.3c8.1-7.7 11.8-11.8 11.8-16.6 0-3.2-1.6-6.2-6.3-6.2-2.9 0-5.3 1.5-6.8 2.7l-1.4-3c2.2-1.9 5.3-3.2 9-3.2 6.9 0 9.7 4.7 9.7 9.3 0 5.9-4.3 10.6-11 17.1l-2.5 2.3v.1h14.3v3.6H29.2zM73.3 58.7H61.2L60 66.9c.7-.1 1.4-.2 2.6-.2 2.4 0 4.9.5 6.9 1.7 2.5 1.4 4.6 4.2 4.6 8.2 0 6.2-4.9 10.9-11.8 10.9-3.5 0-6.4-1-7.9-2l1.1-3.3c1.3.8 3.9 1.8 6.8 1.8 4.1 0 7.5-2.6 7.5-6.9 0-4.1-2.8-7-9.2-7-1.8 0-3.2.2-4.4.3l2.1-15.3h15.2v3.6zM93.8 64c0 6.7-3.5 10-7.6 10-4 0-7.4-3.2-7.4-9.6 0-6.4 3.5-9.9 7.7-9.9 4.3 0 7.3 3.4 7.3 9.5zm-11.7.3c-.1 4.1 1.4 7.1 4.1 7.1 2.8 0 4.1-3 4.1-7.2 0-3.9-1.1-7.1-4.1-7.1-2.7 0-4.1 3.2-4.1 7.2zm3.7 23.1l18.7-32.9h2.7L88.6 87.4h-2.8zm28.7-10.2c0 6.7-3.5 10-7.6 10-4 0-7.4-3.2-7.4-9.5 0-6.4 3.5-10 7.7-10 4.4 0 7.3 3.4 7.3 9.5zm-11.7.3c0 4.1 1.5 7.1 4.2 7.1 2.8 0 4.1-3 4.1-7.2 0-3.9-1.1-7.1-4.1-7.1-2.7 0-4.2 3.2-4.2 7.2z"/><path d="M68.5 7c34 0 61.5 27.5 61.5 61.5" fill="none" stroke="#ff9800" stroke-width="12" stroke-linecap="round" stroke-miterlimit="10"/></svg>