<svg xmlns="http://www.w3.org/2000/svg" viewBox="0 0 137 137"><path d="M68.5 12C99.7 12 125 37.3 125 68.5S99.7 125 68.5 125 12 99.7 12 68.5c0-15.5 6.2-30 17.4-40.8 4.9-4.7 10.5-8.4 16.7-11.1 7.1-3 14.6-4.6 22.4-4.6m0-8c-9.1 0-17.8 1.9-25.6 5.3-7.1 3.1-13.5 7.4-19 12.7C11.6 33.7 4 50.2 4 68.5 4 104.1 32.9 133 68.5 133S133 104.1 133 68.5 104.1 4 68.5 4z" fill="#ccc"/><path d="M49.7 59.7l-4 .3c-.4-1.6-.9-2.7-1.5-3.4-1.1-1.1-2.4-1.7-4-1.7-1.3 0-2.4.4-3.4 1.1-1.3.9-2.2 2.3-3 4-.7 1.8-1.1 4.3-1.1 7.5 1-1.5 2.1-2.6 3.5-3.3 1.4-.7 2.8-1.1 4.4-1.1 2.7 0 4.9 1 6.8 2.9 1.9 2 2.8 4.5 2.8 7.6 0 2-.4 3.9-1.3 5.7-.9 1.8-2.1 3.1-3.6 4-1.5.9-3.3 1.4-5.2 1.4-3.3 0-6-1.2-8.1-3.7s-3.2-6.5-3.2-12.1c0-6.3 1.2-10.9 3.5-13.7 2-2.5 4.8-3.7 8.2-3.7 2.6 0 4.7.7 6.3 2.2 1.6 1.5 2.6 3.5 2.9 6zM33.4 73.8c0 1.4.3 2.7.9 3.9.6 1.3 1.4 2.2 2.5 2.9 1.1.7 2.2 1 3.3 1 1.7 0 3.1-.7 4.3-2 1.2-1.4 1.8-3.2 1.8-5.5 0-2.2-.6-4-1.8-5.3-1.2-1.3-2.7-1.9-4.5-1.9-1.8 0-3.3.6-4.6 1.9-1.2 1.2-1.9 2.9-1.9 5zM54.9 76.8l3.8-.4c.3 1.8.9 3.1 1.9 3.9.9.8 2.1 1.2 3.5 1.2 1.2 0 2.3-.3 3.2-.8.9-.6 1.7-1.3 2.3-2.3.6-.9 1.1-2.2 1.5-3.8.4-1.6.6-3.2.6-4.9v-.8c-.8 1.3-1.9 2.3-3.3 3.1-1.4.8-2.9 1.2-4.5 1.2-2.7 0-5-1-6.8-2.9-1.9-2-2.8-4.5-2.8-7.7 0-3.3 1-6 2.9-8s4.4-3 7.3-3c2.1 0 4 .6 5.8 1.7 1.8 1.1 3.1 2.8 4 4.9.9 2.1 1.4 5.2 1.4 9.2 0 4.2-.5 7.5-1.4 9.9-.9 2.5-2.2 4.3-4 5.6-1.8 1.3-3.9 1.9-6.3 1.9-2.5 0-4.6-.7-6.2-2.1-1.6-1.4-2.6-3.4-2.9-5.9zm16.3-14.4c0-2.3-.6-4.1-1.8-5.5-1.2-1.3-2.7-2-4.4-2-1.8 0-3.3.7-4.6 2.2-1.3 1.4-2 3.3-2 5.6 0 2.1.6 3.8 1.9 5 1.2 1.3 2.8 1.9 4.6 1.9 1.8 0 3.4-.6 4.6-1.9 1.1-1.2 1.7-3 1.7-5.3zM80.3 59.6c0-2.3.6-4.3 1.8-5.9 1.2-1.6 2.9-2.4 5.1-2.4 2 0 3.7.7 5.1 2.2 1.3 1.5 2 3.6 2 6.4 0 2.8-.7 4.9-2 6.4-1.4 1.5-3 2.2-5 2.2s-3.6-.7-4.9-2.2c-1.4-1.5-2.1-3.7-2.1-6.7zm7-5.6c-1 0-1.8.4-2.5 1.3s-1 2.4-1 4.7c0 2.1.3 3.6 1 4.4.7.9 1.5 1.3 2.5 1.3s1.8-.4 2.5-1.3 1-2.4 1-4.7c0-2.1-.3-3.6-1-4.4-.7-.9-1.5-1.3-2.5-1.3zm0 31.5l17.8-34.3h3.2L90.6 85.5h-3.3zm14-8.8c0-2.3.6-4.3 1.8-5.9 1.2-1.6 2.9-2.4 5.1-2.4 2 0 3.7.7 5.1 2.2 1.3 1.5 2 3.6 2 6.4 0 2.8-.7 4.9-2 6.4-1.4 1.5-3 2.2-5 2.2s-3.6-.7-4.9-2.2c-1.4-1.6-2.1-3.8-2.1-6.7zm7-5.6c-1 0-1.8.4-2.5 1.3s-1 2.4-1 4.7c0 2.1.3 3.5 1 4.4.7.9 1.5 1.3 2.5 1.3s1.9-.4 2.5-1.3 1-2.4 1-4.7c0-2.1-.3-3.6-1-4.4-.7-.9-1.5-1.3-2.5-1.3z"/><path d="M68.5 7c34 0 61.5 27.5 61.5 61.5S102.5 130 68.5 130 7 102.5 7 68.5" fill="none" stroke="#ff9800" stroke-width="12" stroke-linecap="round" stroke-miterlimit="10"/></svg>