<svg xmlns="http://www.w3.org/2000/svg" viewBox="0 0 137 137"><path d="M68.5 12C99.7 12 125 37.3 125 68.5S99.7 125 68.5 125 12 99.7 12 68.5c0-15.5 6.2-30 17.4-40.8 4.9-4.7 10.5-8.4 16.7-11.1 7.1-3 14.6-4.6 22.4-4.6m0-8c-9.1 0-17.8 1.9-25.6 5.3-7.1 3.1-13.5 7.4-19 12.7C11.6 33.7 4 50.2 4 68.5 4 104.1 32.9 133 68.5 133S133 104.1 133 68.5 104.1 4 68.5 4z" fill="#ccc"/><path d="M29.3 56v-3.8h20.8v3.1C48 57.5 46 60.4 44 64c-2 3.6-3.6 7.3-4.7 11.2-.8 2.7-1.3 5.6-1.5 8.9h-4.1c0-2.5.5-5.6 1.5-9.2 1-3.6 2.3-7 4.1-10.4 1.8-3.3 3.7-6.1 5.7-8.4H29.3zM74.6 59.7l-3.9.3c-.4-1.6-.8-2.7-1.5-3.4-1.1-1.1-2.4-1.7-4-1.7-1.3 0-2.4.4-3.3 1.1-1.2.9-2.2 2.2-2.9 4-.7 1.7-1.1 4.2-1.1 7.4 1-1.4 2.1-2.5 3.5-3.2 1.4-.7 2.8-1.1 4.3-1.1 2.6 0 4.9 1 6.7 2.9 1.9 1.9 2.8 4.4 2.8 7.5 0 2-.4 3.9-1.3 5.6-.9 1.7-2.1 3.1-3.6 4-1.5.9-3.3 1.4-5.2 1.4-3.3 0-6-1.2-8.1-3.6s-3.1-6.4-3.1-12c0-6.2 1.1-10.7 3.4-13.6 2-2.5 4.7-3.7 8.1-3.7 2.5 0 4.6.7 6.2 2.1 1.7 1.5 2.7 3.5 3 6zM58.4 73.5c0 1.4.3 2.7.9 3.9.6 1.2 1.4 2.2 2.4 2.8 1 .7 2.1 1 3.3 1 1.7 0 3.1-.7 4.3-2 1.2-1.3 1.8-3.2 1.8-5.5 0-2.2-.6-4-1.8-5.3-1.2-1.3-2.7-1.9-4.5-1.9-1.8 0-3.3.6-4.5 1.9-1.2 1.4-1.9 3.1-1.9 5.1zM79.8 59.5c0-2.3.6-4.3 1.7-5.9 1.2-1.6 2.8-2.4 5-2.4 2 0 3.7.7 5 2.2 1.3 1.4 2 3.6 2 6.4 0 2.7-.7 4.8-2 6.3s-3 2.2-5 2.2c-1.9 0-3.6-.7-4.9-2.2-1.1-1.5-1.8-3.7-1.8-6.6zm6.9-5.5c-1 0-1.8.4-2.4 1.3-.7.8-1 2.4-1 4.7 0 2.1.3 3.5 1 4.4.7.8 1.5 1.3 2.4 1.3 1 0 1.8-.4 2.5-1.3.7-.8 1-2.4 1-4.7 0-2.1-.3-3.5-1-4.4-.7-.9-1.5-1.3-2.5-1.3zm0 31.2l17.6-33.9h3.2L90 85.2h-3.3zm14-8.8c0-2.3.6-4.3 1.7-5.9 1.2-1.6 2.8-2.4 5.1-2.4 2 0 3.7.7 5 2.2 1.3 1.4 2 3.6 2 6.4 0 2.7-.7 4.8-2 6.3s-3 2.2-5 2.2c-1.9 0-3.6-.7-4.9-2.2-1.3-1.5-1.9-3.7-1.9-6.6zm6.8-5.5c-1 0-1.8.4-2.5 1.3-.7.8-1 2.4-1 4.7 0 2.1.3 3.5 1 4.3.7.8 1.5 1.3 2.4 1.3 1 0 1.8-.4 2.5-1.3.7-.8 1-2.4 1-4.7 0-2.1-.3-3.5-1-4.4-.6-.8-1.4-1.2-2.4-1.2z"/><path d="M68.5 7c34 0 61.5 27.5 61.5 61.5S102.5 130 68.5 130 7 102.5 7 68.5c0-9.3 2.1-18.1 5.8-26" fill="none" stroke="#ff9800" stroke-width="12" stroke-linecap="round" stroke-miterlimit="10"/></svg>