<svg xmlns="http://www.w3.org/2000/svg" viewBox="0 0 137 137"><path d="M68.5 12C99.7 12 125 37.3 125 68.5S99.7 125 68.5 125 12 99.7 12 68.5c0-15.5 6.2-30 17.4-40.8 4.9-4.7 10.5-8.4 16.7-11.1 7.1-3 14.6-4.6 22.4-4.6m0-8c-9.1 0-17.8 1.9-25.6 5.3-7.1 3.1-13.5 7.4-19 12.7C11.6 33.7 4 50.2 4 68.5 4 104.1 32.9 133 68.5 133S133 104.1 133 68.5 104.1 4 68.5 4z" fill="#ccc"/><path d="M34.8 65.6c-1.6-.6-2.8-1.4-3.6-2.5-.8-1.1-1.2-2.4-1.2-3.9 0-2.3.8-4.2 2.5-5.8 1.7-1.6 3.9-2.4 6.6-2.4 2.8 0 5 .8 6.7 2.4 1.7 1.6 2.5 3.6 2.5 5.9 0 1.5-.4 2.7-1.2 3.8-.8 1.1-1.9 1.9-3.5 2.5 1.9.6 3.4 1.7 4.4 3.1 1 1.4 1.5 3.1 1.5 5.1 0 2.7-1 5-2.9 6.8-1.9 1.8-4.4 2.8-7.6 2.8-3.1 0-5.6-.9-7.6-2.8-1.9-1.8-2.9-4.2-2.9-6.9 0-2.1.5-3.8 1.6-5.2 1.3-1.4 2.8-2.4 4.7-2.9zm-2 8.1c0 1.1.3 2.2.8 3.2s1.3 1.8 2.3 2.4c1 .6 2.2.9 3.3.9 1.9 0 3.4-.6 4.6-1.8 1.2-1.2 1.8-2.7 1.8-4.6 0-1.9-.6-3.4-1.9-4.6-1.2-1.2-2.8-1.8-4.7-1.8-1.8 0-3.3.6-4.5 1.8-1.1 1.1-1.7 2.7-1.7 4.5zM34 59.1c0 1.5.5 2.7 1.4 3.7s2.2 1.4 3.8 1.4c1.5 0 2.7-.5 3.7-1.4 1-.9 1.4-2.1 1.4-3.5s-.5-2.6-1.5-3.6-2.2-1.5-3.7-1.5-2.7.5-3.7 1.4-1.4 2.1-1.4 3.5zM59.4 65.6c-1.6-.6-2.8-1.4-3.6-2.5-.8-1.1-1.2-2.4-1.2-3.9 0-2.3.8-4.2 2.5-5.8 1.7-1.6 3.9-2.4 6.6-2.4 2.8 0 5 .8 6.7 2.4C72.1 55 73 57 73 59.3c0 1.5-.4 2.7-1.2 3.8-.8 1.1-1.9 1.9-3.5 2.5 1.9.6 3.4 1.7 4.4 3.1 1 1.4 1.5 3.1 1.5 5.1 0 2.7-1 5-2.9 6.8-1.9 1.8-4.4 2.8-7.6 2.8-3.1 0-5.6-.9-7.6-2.8-1.9-1.8-2.9-4.2-2.9-6.9 0-2.1.5-3.8 1.6-5.2 1.2-1.4 2.7-2.4 4.6-2.9zm-2 8.1c0 1.1.3 2.2.8 3.2s1.3 1.8 2.3 2.4c1 .6 2.2.9 3.3.9 1.9 0 3.4-.6 4.6-1.8s1.8-2.7 1.8-4.6c0-1.9-.6-3.4-1.9-4.6-1.2-1.2-2.8-1.8-4.7-1.8-1.8 0-3.3.6-4.5 1.8-1.1 1.1-1.7 2.7-1.7 4.5zm1.2-14.6c0 1.5.5 2.7 1.4 3.7s2.2 1.4 3.8 1.4c1.5 0 2.7-.5 3.7-1.4 1-.9 1.4-2.1 1.4-3.5s-.5-2.6-1.5-3.6-2.2-1.5-3.7-1.5-2.7.5-3.7 1.4-1.4 2.1-1.4 3.5zM78.8 58.8c0-2.3.6-4.2 1.7-5.8 1.1-1.6 2.8-2.4 4.9-2.4 2 0 3.6.7 4.9 2.1 1.3 1.4 2 3.5 2 6.3 0 2.7-.7 4.7-2 6.2-1.3 1.4-2.9 2.2-4.9 2.2-1.9 0-3.5-.7-4.8-2.1-1.2-1.5-1.8-3.7-1.8-6.5zm6.7-5.5c-1 0-1.8.4-2.4 1.3-.6.8-1 2.4-1 4.6 0 2 .3 3.5 1 4.3s1.4 1.2 2.4 1.2 1.8-.4 2.4-1.3c.6-.8 1-2.4 1-4.6 0-2-.3-3.5-1-4.3-.6-.8-1.4-1.2-2.4-1.2zm0 30.7l17.3-33.4h3.2L88.8 84h-3.3zm13.7-8.6c0-2.3.6-4.2 1.7-5.8 1.1-1.6 2.8-2.4 5-2.4 2 0 3.6.7 4.9 2.1 1.3 1.4 2 3.5 2 6.3 0 2.7-.7 4.7-2 6.2-1.3 1.4-2.9 2.2-4.9 2.2-1.9 0-3.5-.7-4.8-2.1-1.2-1.5-1.9-3.7-1.9-6.5zm6.8-5.5c-1 0-1.8.4-2.4 1.3s-1 2.4-1 4.6c0 2 .3 3.4 1 4.3.6.8 1.4 1.3 2.4 1.3s1.8-.4 2.5-1.3c.6-.8 1-2.4 1-4.6 0-2-.3-3.5-1-4.3-.7-.9-1.5-1.3-2.5-1.3z"/><path d="M68.6 7.9c33.3 0 60.4 27 60.4 60.4s-27 60.4-60.4 60.4-60.4-27-60.4-60.4c0-17.1 7.1-32.6 18.6-43.6" fill="none" stroke="#ff9800" stroke-width="12" stroke-linecap="round" stroke-miterlimit="10"/></svg>